<?xml version="1.0" encoding="UTF-8"?>
<svg xmlns="http://www.w3.org/2000/svg" xmlns:xlink="http://www.w3.org/1999/xlink" width="342pt" height="36pt" viewBox="0 0 342 36" version="1.1">
<g id="surface1">
<path style="fill:none;stroke-width:1.2;stroke-linecap:butt;stroke-linejoin:round;stroke:rgb(20%,20%,20%);stroke-opacity:1;stroke-miterlimit:10;" d="M 160 720 L 160 688 L 224 688 L 224 720 Z M 160 720 " transform="matrix(1,0,0,-1,-109.5,722.5)"/>
<path style="fill:none;stroke-width:1.2;stroke-linecap:butt;stroke-linejoin:round;stroke:rgb(20%,20%,20%);stroke-opacity:1;stroke-miterlimit:10;" d="M 192 720 L 192 688 " transform="matrix(1,0,0,-1,-109.5,722.5)"/>
<path style=" stroke:none;fill-rule:evenodd;fill:rgb(20%,20%,20%);fill-opacity:1;" d="M 100.300781 18.5 C 100.300781 16.101562 96.699219 16.101562 96.699219 18.5 C 96.699219 20.898438 100.300781 20.898438 100.300781 18.5 Z M 100.300781 18.5 "/>
<path style="fill:none;stroke-width:1.2;stroke-linecap:butt;stroke-linejoin:round;stroke:rgb(20%,20%,20%);stroke-opacity:1;stroke-miterlimit:10;" d="M 208 704.027344 L 254.386719 704.027344 " transform="matrix(1,0,0,-1,-109.5,722.5)"/>
<path style="fill-rule:evenodd;fill:rgb(20%,20%,20%);fill-opacity:1;stroke-width:1.2;stroke-linecap:butt;stroke-linejoin:round;stroke:rgb(20%,20%,20%);stroke-opacity:1;stroke-miterlimit:10;" d="M 254.386719 704.027344 L 247.386719 706.359375 L 247.386719 701.695312 Z M 254.386719 704.027344 " transform="matrix(1,0,0,-1,-109.5,722.5)"/>
<path style="fill:none;stroke-width:1.2;stroke-linecap:butt;stroke-linejoin:round;stroke:rgb(20%,20%,20%);stroke-opacity:1;stroke-miterlimit:10;" d="M 256 720 L 256 688 L 320 688 L 320 720 Z M 256 720 " transform="matrix(1,0,0,-1,-109.5,722.5)"/>
<path style="fill:none;stroke-width:1.2;stroke-linecap:butt;stroke-linejoin:round;stroke:rgb(20%,20%,20%);stroke-opacity:1;stroke-miterlimit:10;" d="M 288 720 L 288 688 " transform="matrix(1,0,0,-1,-109.5,722.5)"/>
<path style=" stroke:none;fill-rule:evenodd;fill:rgb(20%,20%,20%);fill-opacity:1;" d="M 196.300781 18.5 C 196.300781 16.101562 192.699219 16.101562 192.699219 18.5 C 192.699219 20.898438 196.300781 20.898438 196.300781 18.5 Z M 196.300781 18.5 "/>
<path style="fill:none;stroke-width:1.2;stroke-linecap:butt;stroke-linejoin:round;stroke:rgb(20%,20%,20%);stroke-opacity:1;stroke-miterlimit:10;" d="M 304 704.027344 L 350.386719 704.027344 " transform="matrix(1,0,0,-1,-109.5,722.5)"/>
<path style="fill-rule:evenodd;fill:rgb(20%,20%,20%);fill-opacity:1;stroke-width:1.2;stroke-linecap:butt;stroke-linejoin:round;stroke:rgb(20%,20%,20%);stroke-opacity:1;stroke-miterlimit:10;" d="M 350.386719 704.027344 L 343.386719 706.359375 L 343.386719 701.695312 Z M 350.386719 704.027344 " transform="matrix(1,0,0,-1,-109.5,722.5)"/>
<path style="fill:none;stroke-width:1.2;stroke-linecap:butt;stroke-linejoin:round;stroke:rgb(20%,20%,20%);stroke-opacity:1;stroke-miterlimit:10;" d="M 352 720 L 352 688 L 416 688 L 416 720 Z M 352 720 " transform="matrix(1,0,0,-1,-109.5,722.5)"/>
<path style="fill:none;stroke-width:1.2;stroke-linecap:butt;stroke-linejoin:round;stroke:rgb(20%,20%,20%);stroke-opacity:1;stroke-miterlimit:10;" d="M 384 720 L 384 688 " transform="matrix(1,0,0,-1,-109.5,722.5)"/>
<path style=" stroke:none;fill-rule:evenodd;fill:rgb(20%,20%,20%);fill-opacity:1;" d="M 292.300781 18.5 C 292.300781 16.101562 288.699219 16.101562 288.699219 18.5 C 288.699219 20.898438 292.300781 20.898438 292.300781 18.5 Z M 292.300781 18.5 "/>
<path style="fill:none;stroke-width:1.2;stroke-linecap:butt;stroke-linejoin:round;stroke:rgb(20%,20%,20%);stroke-opacity:1;stroke-miterlimit:10;" d="M 400 704.027344 L 448 704 L 448 688 " transform="matrix(1,0,0,-1,-109.5,722.5)"/>
<path style="fill-rule:evenodd;fill:rgb(20%,20%,20%);fill-opacity:1;stroke-width:1.2;stroke-linecap:butt;stroke-linejoin:round;stroke:rgb(20%,20%,20%);stroke-opacity:1;stroke-miterlimit:10;" d="M 448 688 L 450.332031 695 L 445.667969 695 Z M 448 688 " transform="matrix(1,0,0,-1,-109.5,722.5)"/>
<path style="fill:none;stroke-width:1.2;stroke-linecap:butt;stroke-linejoin:round;stroke:rgb(20%,20%,20%);stroke-opacity:1;stroke-miterlimit:10;" d="M 112 720 L 112 704 L 158.386719 704.027344 " transform="matrix(1,0,0,-1,-109.5,722.5)"/>
<path style="fill-rule:evenodd;fill:rgb(20%,20%,20%);fill-opacity:1;stroke-width:1.2;stroke-linecap:butt;stroke-linejoin:round;stroke:rgb(20%,20%,20%);stroke-opacity:1;stroke-miterlimit:10;" d="M 158.386719 704.027344 L 151.382812 706.355469 L 151.386719 701.691406 Z M 158.386719 704.027344 " transform="matrix(1,0,0,-1,-109.5,722.5)"/>
<path style=" stroke:none;fill-rule:evenodd;fill:rgb(20%,20%,20%);fill-opacity:1;" d="M 4.300781 2.5 C 4.300781 0.101562 0.699219 0.101562 0.699219 2.5 C 0.699219 4.898438 4.300781 4.898438 4.300781 2.5 Z M 4.300781 2.5 "/>
</g>
</svg>
